<?xml version="1.0" encoding="UTF-8" standalone="no"?>
<!-- Uploaded to: SVG Repo, www.svgrepo.com, Transformed by: SVG Repo Mixer Tools -->

<svg
   width="800px"
   height="800px"
   viewBox="0 0 20 20"
   version="1.1"
   fill="#000000"
   id="svg16"
   sodipodi:docname="communication.svg"
   inkscape:version="1.2.2 (b0a8486541, 2022-12-01)"
   xmlns:inkscape="http://www.inkscape.org/namespaces/inkscape"
   xmlns:sodipodi="http://sodipodi.sourceforge.net/DTD/sodipodi-0.dtd"
   xmlns="http://www.w3.org/2000/svg"
   xmlns:svg="http://www.w3.org/2000/svg">
  <defs
     id="defs20" />
  <sodipodi:namedview
     id="namedview18"
     pagecolor="#ffffff"
     bordercolor="#666666"
     borderopacity="1.0"
     inkscape:showpageshadow="2"
     inkscape:pageopacity="0.0"
     inkscape:pagecheckerboard="0"
     inkscape:deskcolor="#d1d1d1"
     showgrid="false"
     inkscape:zoom="0.23997436"
     inkscape:cx="-533.39031"
     inkscape:cy="493.80275"
     inkscape:window-width="1366"
     inkscape:window-height="714"
     inkscape:window-x="0"
     inkscape:window-y="22"
     inkscape:window-maximized="1"
     inkscape:current-layer="svg16" />
  <g
     id="SVGRepo_bgCarrier"
     stroke-width="0" />
  <g
     id="SVGRepo_tracerCarrier"
     stroke-linecap="round"
     stroke-linejoin="round" />
  <path
     id="path6"
     style="fill:#0d6efd;fill-opacity:1;fill-rule:evenodd;stroke:none;stroke-width:2;stroke-linecap:round;stroke-linejoin:round"
     d="M 10,1 C 4.477169,1 1.0000001,4.6053042 1.0000001,9.0526367 c 0,2.2420403 0.883706,4.2700873 2.467724,5.7300783 L 2.8000001,19 6.6109861,16.593066 C 7.627156,16.924158 8.7621961,17.105273 10,17.105273 c 5.522829,0 9,-3.605304 9,-8.0526363 C 19,4.6053042 15.522829,1 10,1 Z M 7.0000001,6 H 13 a 1,1 0 0 1 1,1 1,1 0 0 1 -1,1 H 7.0000001 a 1,1 0 0 1 -1,-1 1,1 0 0 1 1,-1 z m 0,4 H 10 a 1,1 0 0 1 1,1 1,1 0 0 1 -1,1 H 7.0000001 a 1,1 0 0 1 -1,-1 1,1 0 0 1 1,-1 z" />
</svg>
